<svg version="1.1" xmlns="http://www.w3.org/2000/svg" xmlns:xlink="http://www.w3.org/1999/xlink">
    <symbol id="logo" viewBox="0 0 119 32">
        <path fill-rule="evenodd" clip-rule="evenodd" d="M24.4886 16C24.4886 22.7649 18.9713 28.3139 12.244 28.3139H10.9925H9.16048C8.15288 28.3139 7.32848 29.1441 7.32848 30.1575C7.32848 31.1698 8.15288 32 9.16048 32H10.9925H12.244C20.9939 32 28.1526 24.8002 28.1526 16C28.1526 7.19979 20.9939 0 12.244 0H3.66449H1.83249C0.824888 0 0.000488281 0.829138 0.000488281 1.84253C0.000488281 2.85592 0.824888 3.68506 1.83249 3.68506H3.66449H12.244C18.9713 3.68506 24.4886 9.23407 24.4886 16ZM3.664 11.056H7.328H12.2446C14.9265 11.056 17.1601 13.3023 17.1601 15.9997C17.1601 18.6971 14.9265 20.9435 12.2446 20.9435H7.328H5.496C4.8548 20.9435 4.2381 21.056 3.664 21.2616C1.53483 22.0243 0 24.0768 0 26.4721V28.3136V30.1572C0 31.1695 0.8244 31.9997 1.832 31.9997C2.8396 31.9997 3.664 31.1695 3.664 30.1572V28.3136V26.4721C3.664 25.4652 4.49585 24.6296 5.496 24.6296H7.328H12.2446C16.9492 24.6296 20.8241 20.7314 20.8241 15.9997C20.8241 11.2681 16.9492 7.37089 12.2446 7.37089H6.48229H3.664H1.832C0.8244 7.37089 0 8.19896 0 9.21235C0 10.2268 0.8244 11.056 1.832 11.056H3.664ZM80.5906 20.9386C81.3 20.9804 81.8826 20.9804 82.2373 20.9804C85.7618 20.9804 87.8046 18.9664 87.8046 15.8631C87.8046 12.9065 85.7618 11.0179 82.2788 11.0179C81.6749 11.0179 81.1743 11.0393 80.5906 11.0821V20.9386ZM82.3214 8.60657C88.1593 8.60657 90.5153 11.9842 90.5153 15.8631C90.5153 19.9949 87.7215 23.3918 82.1542 23.3918C81.4404 23.3918 80.2078 23.3723 78.8852 23.3514L78.8846 23.3514L78.7969 23.35C78.3805 23.35 78.0258 22.9933 78.0258 22.5734V9.44535C78.0258 9.02649 78.3592 8.66977 78.7969 8.66977C79.1509 8.66316 79.5405 8.65461 79.9353 8.64595L79.9361 8.64593L79.9362 8.64593C80.8205 8.62653 81.7302 8.60657 82.3214 8.60657ZM40.2701 15.5908C40.8741 15.654 41.5004 15.6958 42.084 15.6958C43.6061 15.6958 44.7948 14.9609 44.7948 13.3262C44.7948 11.7943 43.8564 11.0391 42.1053 11.0391C41.6345 11.0391 41.0797 11.0565 40.4705 11.0757L40.2701 11.0819V15.5908ZM47.5055 13.3466C47.5055 15.8415 45.65 18.1072 42.1671 18.1072C41.7294 18.1072 40.8954 18.1072 40.2701 18.044V22.5743C40.2701 22.9931 39.9155 23.3498 39.4979 23.3498H38.4765C38.06 23.3498 37.7053 22.9931 37.7053 22.5743V9.44624C37.7053 9.02632 38.0387 8.6696 38.4765 8.6696C39.5192 8.64924 41.0626 8.62782 41.855 8.62782C46.1507 8.62782 47.5055 10.9342 47.5055 13.3466ZM53.5918 17.1842H57.8661L55.7401 11.9629L53.5918 17.1842ZM52.6119 19.5965L51.3189 22.7631C51.1942 23.1188 50.8396 23.3502 50.4636 23.3502H49.7137C49.2344 23.3502 48.9 22.972 48.9 22.5317C48.9 22.4482 48.9213 22.3432 48.9628 22.2393L54.4258 9.21519C54.5717 8.85954 54.9264 8.62815 55.3013 8.62815H56.3025C56.6775 8.62815 57.0321 8.85954 57.1781 9.21519L62.6421 22.2393C62.6836 22.3432 62.7039 22.4482 62.7039 22.5317C62.7039 22.972 62.3705 23.3502 61.8912 23.3502H60.9944C60.6195 23.3502 60.2648 23.1188 60.1391 22.7631L58.8471 19.5965H52.6119ZM72.9609 9.21429L69.6867 14.8147L66.3923 9.21429C66.1835 8.88007 65.8086 8.6701 65.4326 8.6701H64.5369C64.0778 8.6701 63.7444 9.04718 63.7444 9.44568C63.7444 9.59244 63.786 9.74027 63.8691 9.86561L68.2893 17.2261V22.5737C68.2893 22.9936 68.644 23.3503 69.0615 23.3503H70.0829C70.5005 23.3503 70.8551 22.9936 70.8551 22.5737V17.2261L75.3169 9.86561C75.4 9.74027 75.4213 9.59244 75.4213 9.4671C75.4213 9.04718 75.1081 8.6701 74.6501 8.6701H73.8992C73.5243 8.6701 73.1483 8.88007 72.9609 9.21429ZM100.876 17.1842H96.6016L98.75 11.9629L100.876 17.1842ZM94.3287 22.7631L95.6217 19.5965H101.857L103.149 22.7631C103.275 23.1188 103.629 23.3502 104.004 23.3502H104.901C105.38 23.3502 105.714 22.972 105.714 22.5317C105.714 22.4482 105.693 22.3432 105.652 22.2393L100.188 9.21519C100.042 8.85954 99.6873 8.62815 99.3123 8.62815H98.3111C97.9362 8.62815 97.5815 8.85954 97.4356 9.21519L91.9726 22.2393C91.9311 22.3432 91.9098 22.4482 91.9098 22.5317C91.9098 22.972 92.2442 23.3502 92.7235 23.3502H93.4734C93.8494 23.3502 94.204 23.1188 94.3287 22.7631ZM112.697 14.8147L115.971 9.21429C116.159 8.88007 116.535 8.6701 116.909 8.6701H117.66C118.118 8.6701 118.431 9.04718 118.431 9.4671C118.431 9.59244 118.41 9.74027 118.327 9.86561L113.865 17.2261V22.5737C113.865 22.9936 113.511 23.3503 113.093 23.3503H112.072C111.654 23.3503 111.299 22.9936 111.299 22.5737V17.2261L106.879 9.86561C106.796 9.74027 106.755 9.59244 106.755 9.44568C106.755 9.04718 107.088 8.6701 107.547 8.6701H108.443C108.819 8.6701 109.194 8.88007 109.402 9.21429L112.697 14.8147Z"/>        
    </symbol>

    <symbol id="project-vk" viewBox="0 0 82 16">
        <path fill-rule="evenodd" clip-rule="evenodd" d="M68.6038 4.70176C68.6841 8.71771 70.7971 11.1335 74.2817 11.1335H74.4918V8.8351C75.7583 8.96485 76.7098 9.91014 77.0929 11.1335H78.9217C78.4274 9.30466 77.1361 8.2914 76.3391 7.90834C77.1361 7.43261 78.2668 6.27107 78.5324 4.70176H76.8705C76.5245 5.98069 75.4865 7.13604 74.4918 7.24726V4.70176H72.7989V9.15638C71.7671 8.90307 70.4264 7.64885 70.3708 4.70176H68.6038ZM74.0469 15.446H73.4044H73.3455C69.8938 15.446 68.1528 15.446 67.0777 14.3648C65.9965 13.2774 65.9965 11.5351 65.9965 8.05045V7.39554V7.3369C65.9964 3.89735 65.9964 2.15635 67.0777 1.08122C68.1651 0 69.9136 0 73.4044 0H74.0469C77.5377 0 79.2862 0 80.3674 1.08122C81.4425 2.16862 81.4425 3.91092 81.4425 7.39554V8.05045C81.4425 11.5289 81.4425 13.2774 80.3674 14.3648C79.2862 15.446 77.5377 15.446 74.0469 15.446ZM10.5258 3.01894V15.9997H12.5849V10.9148C12.9549 11.3684 13.4323 11.7503 14.0172 12.0607C14.6021 12.3591 15.2705 12.5083 16.0225 12.5083C16.8939 12.5083 17.6757 12.3054 18.368 11.8995C19.0603 11.4818 19.5974 10.9088 19.9794 10.1807C20.3733 9.44067 20.5702 8.60513 20.5702 7.6741C20.5702 6.74307 20.3733 5.91349 19.9794 5.18538C19.5974 4.44533 19.0603 3.87239 18.368 3.46656C17.6757 3.04879 16.8939 2.8399 16.0225 2.8399C15.2467 2.8399 14.5603 3.00701 13.9635 3.34122C13.3667 3.6635 12.8773 4.0574 12.4953 4.52292L12.0656 3.01894H10.5258ZM17.616 9.84053C17.0789 10.3896 16.3806 10.6641 15.5212 10.6641C14.6498 10.6641 13.9396 10.3896 13.3906 9.84053C12.8534 9.27953 12.5849 8.55738 12.5849 7.6741C12.5849 6.79081 12.8534 6.07463 13.3906 5.52557C13.9396 4.96456 14.6498 4.68406 15.5212 4.68406C16.3806 4.68406 17.0789 4.96456 17.616 5.52557C18.1531 6.07463 18.4217 6.79081 18.4217 7.6741C18.4217 8.55738 18.1531 9.27953 17.616 9.84053ZM0 12.3293H2.05901V4.89891H6.14122V12.3293H8.20023V3.01894H0V12.3293ZM26.8034 12.5083C25.8485 12.5083 24.989 12.3054 24.2251 11.8995C23.4731 11.4818 22.8823 10.9088 22.4526 10.1807C22.0348 9.44067 21.8259 8.60513 21.8259 7.6741C21.8259 6.74307 22.0348 5.91349 22.4526 5.18538C22.8823 4.44533 23.4731 3.87239 24.2251 3.46656C24.989 3.04879 25.8485 2.8399 26.8034 2.8399C27.7583 2.8399 28.6117 3.04879 29.3637 3.46656C30.1276 3.87239 30.7185 4.44533 31.1362 5.18538C31.5659 5.91349 31.7808 6.74307 31.7808 7.6741C31.7808 8.60513 31.5659 9.44067 31.1362 10.1807C30.7185 10.9088 30.1276 11.4818 29.3637 11.8995C28.6117 12.3054 27.7583 12.5083 26.8034 12.5083ZM26.8034 10.6283C27.6389 10.6283 28.3193 10.3598 28.8445 9.82263C29.3697 9.27356 29.6323 8.55738 29.6323 7.6741C29.6323 6.79081 29.3697 6.0806 28.8445 5.54347C28.3193 4.9944 27.6389 4.71987 26.8034 4.71987C25.9678 4.71987 25.2874 4.9944 24.7623 5.54347C24.2371 6.0806 23.9745 6.79081 23.9745 7.6741C23.9745 8.55738 24.2371 9.27356 24.7623 9.82263C25.2874 10.3598 25.9678 10.6283 26.8034 10.6283ZM42.6663 8.22914C42.6901 7.96654 42.7021 7.74572 42.7021 7.56667C42.7021 6.68339 42.4932 5.88365 42.0754 5.16748C41.6696 4.43936 41.0966 3.87239 40.3566 3.46656C39.6285 3.04879 38.7989 2.8399 37.8679 2.8399C36.9368 2.8399 36.1013 3.04879 35.3613 3.46656C34.6331 3.87239 34.0602 4.44533 33.6424 5.18538C33.2366 5.91349 33.0337 6.74307 33.0337 7.6741C33.0337 8.60513 33.2366 9.44067 33.6424 10.1807C34.0602 10.9088 34.6331 11.4818 35.3613 11.8995C36.1013 12.3054 36.9368 12.5083 37.8679 12.5083C38.8705 12.5083 39.7777 12.2755 40.5894 11.81C41.413 11.3445 41.9919 10.682 42.3261 9.82263L40.3924 9.50035C40.1656 9.8465 39.8374 10.121 39.4077 10.324C38.9899 10.5269 38.5184 10.6283 37.9932 10.6283C37.2174 10.6283 36.5788 10.4135 36.0774 9.98377C35.5761 9.54213 35.2777 8.95725 35.1822 8.22914H42.6663ZM36.2386 5.16748C36.7041 4.80939 37.2472 4.63034 37.8679 4.63034C38.5005 4.63034 39.0436 4.81536 39.4972 5.18538C39.9627 5.54347 40.285 6.02092 40.464 6.61774H35.3075C35.4747 6.00899 35.785 5.52557 36.2386 5.16748ZM52.7932 12.3293H50.0896L46.8668 8.62303H46.3655V12.3293H44.3065V3.01894H46.3655V6.63564H46.8668L49.9822 3.01894H52.4351L48.514 7.49505L52.7932 12.3293ZM56.2857 12.3293H58.3447V4.89891H61.5675V3.01894H53.0629V4.89891H56.2857V12.3293Z"/>
    </symbol>


    <symbol id="siluet" viewBox="0 0 24 24">
        <!-- <rect y="0" fill="none" width="24" height="24"/> -->
        <path d="M3.439,21.241c0.214,0.119,0.435,0.242,0.661,0.467c0.281,0.28,0.496,0.636,0.685,0.951
        c0.153,0.254,0.298,0.494,0.455,0.661c0.38,0.4,0.711,0.568,1.219,0.62C6.877,23.98,7.257,24,7.621,24
        c0.712,0,1.407-0.077,2.186-0.244c0.532-0.115,1.385-0.442,1.862-0.714c0.112-0.065,1.067-0.557,1.216-0.624
        c0.216-0.105,0.599-0.228,1.042-0.369c0.447-0.143,0.953-0.305,1.341-0.47c0.613-0.255,1.641-0.523,2.558-0.55
        c0.191-0.007,0.406-0.012,0.635-0.018c0.807-0.021,1.812-0.047,2.632-0.163c0.595-0.08,1.202-0.272,1.445-0.456
        c0.074-0.058,0.095-0.157,0.1-0.229c0.013-0.205-0.085-0.45-0.243-0.611c-0.03-0.03-0.058-0.06-0.086-0.09
        c-0.182-0.195-0.354-0.38-1.194-0.574c-0.311-0.073-0.608-0.108-0.907-0.108c-0.69,0-1.303,0.194-1.952,0.4
        c-0.154,0.049-0.311,0.099-0.472,0.147c-0.554,0.173-1.117,0.257-1.72,0.257c-0.43,0-0.834-0.043-1.174-0.085
        c-0.695-0.088-1.472-0.919-1.677-1.575c-0.215-0.659-0.255-1.24-0.132-1.883c0.116-0.604,0.346-1.057,0.568-1.494
        c0.06-0.119,0.12-0.236,0.177-0.356c0.276-0.592,1.298-1.881,1.656-2.267c0.595-0.647,1.016-1.124,1.424-1.584l0.18-0.203
        c0.167-0.191,0.333-0.401,0.526-0.645c0.252-0.319,0.537-0.681,0.906-1.101c0.429-0.481,0.674-0.789,0.984-1.179
        c0.114-0.143,0.237-0.298,0.382-0.478c0.241-0.311,0.649-1.006,0.715-1.324c0.067-0.304-0.05-0.61-0.197-0.721
        c-0.083-0.06-0.203-0.094-0.336-0.094c-0.187,0-0.368,0.066-0.497,0.181C19.096,5.199,18.737,5.7,18.357,6.23
        c-0.241,0.336-0.489,0.683-0.769,1.006c-0.341,0.401-0.681,0.761-1.009,1.108c-0.234,0.248-0.456,0.483-0.659,0.712
        c-0.315,0.352-0.598,0.683-0.865,0.994c-0.368,0.429-0.715,0.835-1.069,1.207c-0.375,0.393-0.802,0.61-1.204,0.61
        c-0.238,0-0.451-0.078-0.599-0.219c-0.385-0.363-0.194-1.146-0.048-1.448c0.091-0.191,0.191-0.387,0.415-0.827l0.392-0.773
        c0.302-0.6,0.681-1.499,1.159-2.746C14.274,5.4,14.505,4.88,14.748,4.33c0.248-0.56,0.529-1.195,0.801-1.877
        c0.343-0.862,0.205-1.384-0.084-1.52c-0.44-0.208-0.835-0.054-1.099,0.452c-0.359,0.692-0.577,1.173-1.738,3.97
        c-0.058,0.141-0.201,0.416-0.383,0.764c-0.238,0.459-0.535,1.03-0.8,1.6c-0.169,0.362-0.325,0.747-0.462,1.086
        c-0.301,0.744-0.519,1.282-0.778,1.441c-0.491,0.299-0.973,0.219-1.151-0.189C8.872,9.64,8.957,8.94,9.057,8.13
        c0.041-0.338,0.085-0.688,0.11-1.038c0.098-1.272,0.216-2.03,0.307-2.547c0.062-0.352,0.219-1.003,0.371-1.634
        c0.145-0.603,0.296-1.226,0.36-1.577c0.073-0.413,0.033-0.895-0.089-1.097C10.061,0.144,9.888,0,9.649,0
        C9.519,0,9.39,0.043,9.265,0.128C9.048,0.267,8.862,0.641,8.711,1.241C8.522,2.002,8.421,2.49,8.313,3.006
        C8.204,3.529,8.091,4.069,7.877,4.958C7.84,5.116,7.795,5.294,7.744,5.493C7.591,6.098,7.381,6.926,7.185,8.015
        c-0.053,0.3-0.089,0.626-0.127,0.971c-0.053,0.482-0.107,0.98-0.217,1.513c-0.069,0.319-0.438,0.577-0.62,0.645
        c-0.127,0.049-0.246,0.096-0.386,0.096c-0.179,0-0.356-0.075-0.572-0.244c-0.341-0.264-1.054-1.778-1.324-2.482
        C3.71,7.933,3.471,7.307,3.274,6.674C3.162,6.309,3.08,5.993,2.994,5.658c-0.119-0.462-0.242-0.94-0.462-1.617
        c-0.104-0.323-0.42-0.437-0.659-0.437c-0.057,0-0.111,0.007-0.152,0.019C1.557,3.671,1.342,3.787,1.362,4.241
        C1.394,4.954,1.64,5.967,1.689,6.163c0.248,0.971,0.427,1.504,0.676,2.241l0.216,0.64c0.207,0.609,0.421,1.239,0.6,1.965
        c0.167,0.681,0.263,1.686,0.033,2.46l-0.1,0.328c-0.228,0.747-0.572,1.876-0.816,2.965c-0.106,0.453-0.281,1.442-0.264,2.284
        c0.018,0.782,0.196,1.211,0.707,1.702C2.994,20.993,3.22,21.119,3.439,21.241z"/>
    </symbol>

</svg>

